<svg width="28" height="28" viewBox="0 0 28 28" fill="none" xmlns="http://www.w3.org/2000/svg">
<g clip-path="url(#clip0_1369_9)">
<path d="M28.0004 0H-0.0791016V28H28.0004V0Z" fill="url(#paint0_radial_1369_9)"/>
<path fill-rule="evenodd" clip-rule="evenodd" d="M12.5911 6.99207C12.6654 6.99207 12.7257 7.05254 12.7257 7.12694C12.7257 7.49393 12.7257 8.50847 12.7257 8.87538C12.7257 8.95001 12.6654 9.01033 12.5911 9.01033C12.1661 9.01033 10.8561 9.01033 10.4311 9.01033C10.3568 9.01033 10.2965 8.95001 10.2965 8.87538C10.2965 8.50847 10.2965 7.49393 10.2965 7.12694C10.2965 7.05254 10.3568 6.99207 10.4311 6.99207C10.8561 6.99207 12.1661 6.99207 12.5911 6.99207ZM16.8221 6.99207C16.8966 6.99207 16.9568 7.05254 16.9568 7.12694C16.9568 7.49393 16.9568 8.50847 16.9568 8.87538C16.9568 8.95001 16.8966 9.01033 16.8221 9.01033C16.3975 9.01033 15.0873 9.01033 14.6624 9.01033C14.5881 9.01033 14.5279 8.95001 14.5279 8.87538C14.5279 8.50847 14.5279 7.49393 14.5279 7.12694C14.5279 7.05254 14.5881 6.99207 14.6624 6.99207C15.0873 6.99207 16.3975 6.99207 16.8221 6.99207ZM10.2965 12.4557H8.74774V13.96C8.74774 13.9956 8.73361 14.0301 8.70831 14.0553C8.68308 14.0806 8.64885 14.0948 8.61314 14.0948C8.18402 14.0948 6.85181 14.0948 6.42269 14.0948C6.38698 14.0948 6.35275 14.0806 6.32752 14.0553C6.30229 14.0301 6.28809 13.9956 6.28809 13.96V12.4862C6.28809 11.833 6.5472 11.2065 7.00853 10.7445C7.46979 10.2826 8.09537 10.0231 8.74774 10.0231H18.6052V8.76873C18.6052 8.69434 18.6655 8.63401 18.7398 8.63401C19.169 8.63401 20.5012 8.63401 20.9305 8.63401C21.0048 8.63401 21.065 8.69434 21.065 8.76873C21.065 8.99028 21.065 9.46012 21.065 9.99261C21.065 10.646 20.8059 11.2725 20.3447 11.7343C19.8833 12.1962 19.2578 12.4557 18.6055 12.4557H16.9568V20.8034C16.9568 20.8599 16.9219 20.9102 16.869 20.9297C16.5711 21.04 15.5868 21.404 14.9933 21.6233C14.8873 21.6627 14.7685 21.6474 14.6759 21.5827C14.5831 21.5178 14.5279 21.4118 14.5279 21.2983V12.4557H12.7257V20.8034C12.7257 20.8599 12.6906 20.9102 12.6377 20.9297C12.3399 21.04 11.3555 21.404 10.7622 21.6233C10.6561 21.6627 10.5375 21.6474 10.4446 21.5827C10.3518 21.5178 10.2965 21.4118 10.2965 21.2983V12.4557Z" fill="#F2B65F"/>
<path fill-rule="evenodd" clip-rule="evenodd" d="M13.9499 2.30567C20.4149 2.30567 25.664 7.55007 25.664 14.01C25.664 20.4697 20.4149 25.7143 13.9499 25.7143C7.48466 25.7143 2.23574 20.4697 2.23574 14.01C2.23574 7.55007 7.48466 2.30567 13.9499 2.30567ZM13.9499 0.265869C21.5419 0.265869 27.7054 6.42445 27.7054 14.01C27.7054 21.5955 21.5419 27.7541 13.9499 27.7541C6.35799 27.7541 0.194336 21.5955 0.194336 14.01C0.194336 6.42445 6.35799 0.265869 13.9499 0.265869Z" fill="#F2B65F"/>
</g>
<defs>
<radialGradient id="paint0_radial_1369_9" cx="0" cy="0" r="1" gradientUnits="userSpaceOnUse" gradientTransform="translate(13.9606 14) scale(15.2565 15.2133)">
<stop stop-color="#3A2762"/>
<stop offset="0.125" stop-color="#392761"/>
<stop offset="0.179688" stop-color="#392760"/>
<stop offset="0.230469" stop-color="#382760"/>
<stop offset="0.253906" stop-color="#38265F"/>
<stop offset="0.273438" stop-color="#37265F"/>
<stop offset="0.292969" stop-color="#37265E"/>
<stop offset="0.3125" stop-color="#36265D"/>
<stop offset="0.332031" stop-color="#36265D"/>
<stop offset="0.351562" stop-color="#35265C"/>
<stop offset="0.371094" stop-color="#35265C"/>
<stop offset="0.390625" stop-color="#34265B"/>
<stop offset="0.40625" stop-color="#34255A"/>
<stop offset="0.421875" stop-color="#33255A"/>
<stop offset="0.4375" stop-color="#332559"/>
<stop offset="0.453125" stop-color="#322558"/>
<stop offset="0.46875" stop-color="#322558"/>
<stop offset="0.484375" stop-color="#312557"/>
<stop offset="0.5" stop-color="#302556"/>
<stop offset="0.515625" stop-color="#302455"/>
<stop offset="0.527344" stop-color="#2F2455"/>
<stop offset="0.539062" stop-color="#2F2454"/>
<stop offset="0.550781" stop-color="#2E2453"/>
<stop offset="0.5625" stop-color="#2E2453"/>
<stop offset="0.574219" stop-color="#2D2452"/>
<stop offset="0.585938" stop-color="#2D2451"/>
<stop offset="0.597656" stop-color="#2C2451"/>
<stop offset="0.609375" stop-color="#2C2350"/>
<stop offset="0.621094" stop-color="#2B234F"/>
<stop offset="0.632812" stop-color="#2A234F"/>
<stop offset="0.640625" stop-color="#2A234E"/>
<stop offset="0.648438" stop-color="#2A234D"/>
<stop offset="0.65625" stop-color="#29234D"/>
<stop offset="0.664062" stop-color="#29234C"/>
<stop offset="0.671875" stop-color="#28234C"/>
<stop offset="0.679688" stop-color="#28224B"/>
<stop offset="0.6875" stop-color="#27224B"/>
<stop offset="0.695312" stop-color="#27224A"/>
<stop offset="0.703125" stop-color="#27224A"/>
<stop offset="0.710938" stop-color="#262249"/>
<stop offset="0.71875" stop-color="#262248"/>
<stop offset="0.726562" stop-color="#252248"/>
<stop offset="0.734375" stop-color="#252247"/>
<stop offset="0.742188" stop-color="#242247"/>
<stop offset="0.75" stop-color="#242146"/>
<stop offset="0.757812" stop-color="#232145"/>
<stop offset="0.769531" stop-color="#222144"/>
<stop offset="0.78125" stop-color="#212143"/>
<stop offset="0.792969" stop-color="#212142"/>
<stop offset="0.804688" stop-color="#202142"/>
<stop offset="0.808594" stop-color="#202041"/>
<stop offset="0.8125" stop-color="#202041"/>
<stop offset="0.816406" stop-color="#1F2041"/>
<stop offset="0.824219" stop-color="#1F2040"/>
<stop offset="0.832031" stop-color="#1E203F"/>
<stop offset="1" stop-color="#1E203F"/>
</radialGradient>
<clipPath id="clip0_1369_9">
<rect width="28" height="28" fill="white"/>
</clipPath>
</defs>
</svg>
